# File created by Blade
# Date/Time:  Tue Jan 27 18:09:18 2015
#---------------------------------------------------------
:version 1.10
:name HOM
:units
  mass 1.0
  length 1.000000
  angle deg
:documentation
     Acclaim Skeleton File
:root
   axis xyz
   order TX TY TZ RX RY RZ
   position 0.000000 0.000000 0.000000
   orientation 0 0 0
:bonedata
   begin
      id 1
      name Spine_dum
      direction 0.000000 1.000000 0.000000
      length 5.195262
      axis 0.0 0.0 0.0 xyz
   end
   begin
      id 2
      name LeftUpLeg_dum
      direction 1.000000 0.000000 0.000000
      length 3.351363
      axis 0.0 0.0 0.0 xyz
   end
   begin
      id 3
      name RightUpLeg_dum
      direction -1.000000 0.000000 0.000000
      length 3.351363
      axis 0.0 0.0 0.0 xyz
   end
   begin
      id 4
      name Spine
      direction 0.000000 1.000000 0.000000
      length 0.000000
      axis 0.0 0.0 0.0 xyz
      dof rx ry rz
   end
   begin
      id 5
      name Spine_dum1
      direction 0.000000 1.000000 0.000000
      length 15.653875
      axis 0.0 0.0 0.0 xyz
   end
   begin
      id 6
      name Spine_dum2
      direction 0.000000 1.000000 0.000000
      length 10.329768
      axis 0.0 0.0 0.0 xyz
   end
   begin
      id 7
      name Spine_dum3
      direction 0.000000 1.000000 0.000000
      length 10.329768
      axis 0.0 0.0 0.0 xyz
   end
   begin
      id 8
      name Head
      direction 0.000000 1.000000 0.000000
      length 4.527550
      axis 0.0 0.0 0.0 xyz
      dof rx ry rz
   end
   begin
      id 9
      name LeftShoulder
      direction 1.000000 0.000000 0.000000
      length 6.996006
      axis 0.0 0.0 -90.0 xyz
      dof rx ry rz
   end
   begin
      id 10
      name LeftArm
      direction 1.000000 0.000000 0.000000
      length 10.209302
      axis 0.0 0.0 -90.0 xyz
      dof rx ry rz
   end
   begin
      id 11
      name LeftForeArm
      direction 1.000000 0.000000 0.000000
      length 8.563163
      axis 0.0 0.0 -90.0 xyz
      dof ry rz rx
   end
   begin
      id 12
      name LeftHand
      direction 0.000000 0.000000 0.000000
      length 0.000000
      axis 0.0 0.0 -90.0 xyz
      dof rx ry rz
   end
   begin
      id 13
      name LeftHand_dum1
      direction 0.000000 0.000000 0.000000
      length 0.000000
      axis 0.0 0.0 -90.0 xyz
   end
   begin
      id 14
      name LeftHand_dum2
      direction 1.000000 0.000000 0.000000
      length 3.937000
      axis 0.0 0.0 -90.0 xyz
   end
   begin
      id 15
      name LeftHandThumb1
      direction 0.000000 0.000000 1.000000
      length 3.937000
      axis 0.0 0.0 -90.0 xyz
      dof rx rz ry
   end
   begin
      id 16
      name RightShoulder
      direction -1.000000 0.000000 0.000000
      length 6.996006
      axis 0.0 0.0 90.0 xyz
      dof rx ry rz
   end
   begin
      id 17
      name RightArm
      direction -1.000000 0.000000 0.000000
      length 10.209302
      axis 0.0 0.0 90.0 xyz
      dof rx ry rz
   end
   begin
      id 18
      name RightForeArm
      direction -1.000000 0.000000 0.000000
      length 8.563163
      axis 0.0 0.0 90.0 xyz
      dof ry rz rx
   end
   begin
      id 19
      name RightHand
      direction 0.000000 0.000000 0.000000
      length 0.000000
      axis 0.0 0.0 90.0 xyz
      dof rx ry rz
   end
   begin
      id 20
      name RightHand_dum1
      direction 0.000000 0.000000 0.000000
      length 0.000000
      axis 0.0 0.0 90.0 xyz
   end
   begin
      id 21
      name RightHand_dum2
      direction -1.000000 0.000000 0.000000
      length 3.937000
      axis 0.0 0.0 90.0 xyz
   end
   begin
      id 22
      name RightHandThumb1
      direction 0.000000 0.000000 1.000000
      length 3.937000
      axis 0.0 0.0 90.0 xyz
      dof rx rz ry
   end
   begin
      id 23
      name LeftUpLeg
      direction 0.000000 -1.000000 0.000000
      length 16.346831
      axis 0.0 0.0 0.0 xyz
      dof rx ry rz
   end
   begin
      id 24
      name LeftLeg
      direction 0.000000 -1.000000 0.000000
      length 13.959795
      axis 0.0 0.0 0.0 xyz
      dof rx ry rz
   end
   begin
      id 25
      name LeftFoot
      direction 0.000000 -0.258819 0.965926
      length 5.165550
      axis 15.0 0.0 0.0 xyz
      dof rx ry rz
   end
   begin
      id 26
      name LeftToeBase
      direction 0.000000 0.000000 1.000000
      length 2.952750
      axis 0.0 0.0 0.0 xyz
      dof rx ry rz
   end
   begin
      id 27
      name RightUpLeg
      direction 0.000000 -1.000000 0.000000
      length 16.346831
      axis 0.0 0.0 0.0 xyz
      dof rx ry rz
   end
   begin
      id 28
      name RightLeg
      direction 0.000000 -1.000000 0.000000
      length 13.959795
      axis 0.0 0.0 0.0 xyz
      dof rx ry rz
   end
   begin
      id 29
      name RightFoot
      direction 0.000000 -0.258819 0.965926
      length 5.165550
      axis 15.0 0.0 0.0 xyz
      dof rx ry rz
   end
   begin
      id 30
      name RightToeBase
      direction 0.000000 0.000000 1.000000
      length 2.952750
      axis 0.0 0.0 0.0 xyz
      dof rx ry rz
   end
:hierarchy
   begin
      root Spine_dum LeftUpLeg_dum RightUpLeg_dum
      Spine_dum Spine
      LeftUpLeg_dum LeftUpLeg
      RightUpLeg_dum RightUpLeg
      Spine Spine_dum1 Spine_dum2 Spine_dum3
      Spine_dum1 Head
      Spine_dum2 LeftShoulder
      Spine_dum3 RightShoulder
      LeftShoulder LeftArm
      LeftArm LeftForeArm
      LeftForeArm LeftHand
      LeftHand LeftHand_dum1 LeftHand_dum2
      LeftHand_dum1 LeftHandThumb1
      RightShoulder RightArm
      RightArm RightForeArm
      RightForeArm RightHand
      RightHand RightHand_dum1 RightHand_dum2
      RightHand_dum1 RightHandThumb1
      LeftUpLeg LeftLeg
      LeftLeg LeftFoot
      LeftFoot LeftToeBase
      RightUpLeg RightLeg
      RightLeg RightFoot
      RightFoot RightToeBase
   end

# File created by Blade
# Date/Time:  Tue Jan 27 18:09:10 2015
# Frame Rate: 120.000 fps
#------------------------------------------------------
:FULLY-SPECIFIED
:DEGREES
1
root -1.335187 31.844495 -6.650684 4.465362 6.910308 3.577312
Spine -5.190916 -7.549685 -1.473117
Head 5.706584 7.837985 -0.182503
LeftShoulder -17.947858 14.346930 24.374895
LeftArm 23.253596 -18.046897 -22.148251
LeftForeArm 2.583641 -0.000000 1.163653
LeftHand -12.425014 -0.000000 -10.041582
LeftHandThumb1 -26.253704 0.000000 33.147579
RightShoulder -11.607037 5.327302 -37.694700
RightArm 18.419636 14.511538 34.439117
RightForeArm -23.462879 0.000000 6.541069
RightHand -15.174333 -0.000000 16.568191
RightHandThumb1 -24.326973 -0.000000 -32.862282
LeftUpLeg -0.362696 -0.774434 -1.544411
LeftLeg 1.312699 -0.000000 -0.000000
LeftFoot -17.996044 16.412670 -24.637794
LeftToeBase 8.655495 -0.000000 -0.000000
RightUpLeg 2.298895 -4.473815 -4.321321
RightLeg -2.929771 -0.000000 0.000000
RightFoot -15.525720 -13.313620 9.744076
RightToeBase 5.053664 -0.000000 -0.000000
2
root -1.337218 31.844826 -6.652087 4.457988 6.904087 3.572042
Spine -5.186649 -7.547560 -1.472247
Head 5.763048 7.840764 -0.164467
LeftShoulder -17.941622 14.326586 24.375668
LeftArm 23.234870 -17.986533 -22.089291
LeftForeArm 2.511832 0.000000 1.139351
LeftHand -12.451017 0.000000 -10.126906
LeftHandThumb1 -26.253704 0.000000 33.147579
RightShoulder -11.595480 5.315766 -37.712846
RightArm 18.434889 14.510485 34.474122
RightForeArm -23.451887 -0.000000 6.493254
RightHand -15.149030 -0.000000 16.589607
RightHandThumb1 -24.326973 -0.000000 -32.862282
LeftUpLeg -0.361170 -0.755953 -1.533904
LeftLeg 1.316280 -0.000000 -0.000000
LeftFoot -17.979621 16.383843 -24.648522
LeftToeBase 8.638727 -0.000000 -0.000000
RightUpLeg 2.295012 -4.474945 -4.313991
RightLeg -2.916690 -0.000000 0.000000
RightFoot -15.528833 -13.307317 9.744340
RightToeBase 5.102103 -0.000000 -0.000000
3
root -1.344703 31.845120 -6.652864 4.458244 6.919067 3.518275
Spine -5.201428 -7.559788 -1.422568
Head 5.827483 7.847816 -0.146898
LeftShoulder -17.940434 14.331118 24.376064
LeftArm 23.250243 -18.000179 -22.071899
LeftForeArm 2.525307 -0.000000 1.107044
LeftHand -12.399584 -0.000000 -10.138987
LeftHandThumb1 -26.253704 0.000000 33.147579
RightShoulder -11.575799 5.309539 -37.729876
RightArm 18.429046 14.492487 34.496285
RightForeArm -23.426659 -0.000000 6.463275
RightHand -15.132722 -0.000000 16.607834
RightHandThumb1 -24.326973 -0.000000 -32.862282
LeftUpLeg -0.377901 -0.747916 -1.464058
LeftLeg 1.331134 -0.000000 -0.000000
LeftFoot -18.011154 16.346047 -24.682682
LeftToeBase 8.660177 -0.000000 -0.000000
RightUpLeg 2.436411 -3.946879 -4.251407
RightLeg -3.227204 -0.000000 0.000000
RightFoot -15.422432 -13.747786 9.945401
RightToeBase 5.143626 -0.000000 -0.000000
4
root -1.347103 31.845027 -6.652954 4.442490 6.916125 3.513698
Spine -5.189295 -7.560554 -1.425037
Head 5.881576 7.841252 -0.131788
LeftShoulder -17.925577 14.312971 24.401526
LeftArm 23.222358 -18.002513 -22.067713
LeftForeArm 2.536888 -0.000000 1.123782
LeftHand -12.442711 -0.000000 -10.209064
LeftHandThumb1 -26.253704 0.000000 33.147579
RightShoulder -11.570062 5.344478 -37.746893
RightArm 18.426058 14.425336 34.496653
RightForeArm -23.410608 -0.000000 6.430228
RightHand -15.144110 -0.000000 16.632555
RightHandThumb1 -24.326973 -0.000000 -32.862282
LeftUpLeg -0.365336 -0.722803 -1.453902
LeftLeg 1.334820 -0.000000 -0.000000
LeftFoot -18.000334 16.318543 -24.679307
LeftToeBase 8.635810 -0.000000 -0.000000
RightUpLeg 2.468220 -3.870246 -4.243549
RightLeg -3.263637 -0.000000 0.000000
RightFoot -15.408867 -13.815421 9.944397
RightToeBase 5.086047 -0.000000 -0.000000
5
root -1.345350 31.844957 -6.654889 4.439015 6.925785 3.519878
Spine -5.190779 -7.580458 -1.416304
Head 5.938267 7.837025 -0.145887
LeftShoulder -17.922537 14.310640 24.394745
LeftArm 23.220856 -17.981757 -22.041268
LeftForeArm 2.541301 -0.000000 1.101325
LeftHand -12.439199 -0.000000 -10.212301
LeftHandThumb1 -26.253704 0.000000 33.147579
RightShoulder -11.546448 5.357594 -37.785147
RightArm 18.435469 14.433988 34.521840
RightForeArm -23.447367 -0.000000 6.392110
RightHand -15.036536 -0.000000 16.757176
RightHandThumb1 -24.326973 -0.000000 -32.862282
LeftUpLeg -0.365873 -0.748718 -1.463489
LeftLeg 1.337660 -0.000000 -0.000000
LeftFoot -18.008128 16.335296 -24.676948
LeftToeBase 8.648997 -0.000000 -0.000000
RightUpLeg 2.471861 -3.880719 -4.251976
RightLeg -3.266254 -0.000000 0.000000
RightFoot -15.407325 -13.826924 9.948003
RightToeBase 5.089422 -0.000000 -0.000000
6
root -1.345222 31.845112 -6.655513 4.430248 6.933092 3.521624
Spine -5.188861 -7.590227 -1.413240
Head 6.001773 7.822311 -0.148236
LeftShoulder -17.910721 14.313891 24.403052
LeftArm 23.224723 -18.041265 -22.048871
LeftForeArm 2.598230 -0.000000 1.101180
LeftHand -12.460381 -0.000000 -10.295563
LeftHandThumb1 -26.253704 0.000000 33.147579
RightShoulder -11.528968 5.358021 -37.804460
RightArm 18.446862 14.410666 34.523702
RightForeArm -23.476641 -0.000000 6.386484
RightHand -15.128671 -0.000000 16.713694
RightHandThumb1 -24.326973 -0.000000 -32.862282
LeftUpLeg -0.357186 -0.751598 -1.464486
LeftLeg 1.333409 -0.000000 -0.000000
LeftFoot -17.985914 16.340680 -24.634582
LeftToeBase 8.628129 -0.000000 -0.000000
RightUpLeg 2.475832 -3.912517 -4.254709
RightLeg -3.254260 -0.000000 0.000000
RightFoot -15.416467 -13.791201 9.969453
RightToeBase 5.136608 -0.000000 -0.000000
7
root -1.345646 31.845158 -6.656851 4.427105 6.936474 3.520694
Spine -5.190263 -7.596437 -1.407844
Head 6.056799 7.824124 -0.144203
LeftShoulder -17.912822 14.337877 24.390199
LeftArm 23.242325 -18.056273 -22.020487
LeftForeArm 2.621641 -0.000000 1.104570
LeftHand -12.497614 -0.000000 -10.304162
LeftHandThumb1 -26.253704 0.000000 33.147579
RightShoulder -11.521500 5.368535 -37.827522
RightArm 18.459681 14.375927 34.521609
RightForeArm -23.508221 0.000000 6.385242
RightHand -15.085912 -0.000000 16.854455
RightHandThumb1 -24.326973 -0.000000 -32.862282
LeftUpLeg -0.358821 -0.743549 -1.463870
LeftLeg 1.336681 -0.000000 -0.000000
LeftFoot -17.990356 16.336195 -24.640503
LeftToeBase 8.633794 -0.000000 -0.000000
RightUpLeg 2.479195 -3.899338 -4.252918
RightLeg -3.257612 -0.000000 0.000000
RightFoot -15.424478 -13.802244 9.975466
RightToeBase 5.177402 -0.000000 -0.000000
8
root -1.346235 31.845195 -6.658415 4.419951 6.942541 3.520206
Spine -5.184522 -7.600940 -1.401199
Head 6.107781 7.813696 -0.159093
LeftShoulder -17.953496 14.418405 24.329173
LeftArm 23.338729 -18.104986 -21.966068
LeftForeArm 2.632415 -0.000000 1.061455
LeftHand -12.422002 -0.000000 -10.344650
LeftHandThumb1 -26.253704 0.000000 33.147579
RightShoulder -11.509820 5.364402 -37.850184
RightArm 18.477358 14.380809 34.530986
RightForeArm -23.574304 0.000000 6.377432
RightHand -15.004978 -0.000000 16.811953
RightHandThumb1 -24.326973 -0.000000 -32.862282
LeftUpLeg -0.358595 -0.743050 -1.464669
LeftLeg 1.344850 -0.000000 -0.000000
LeftFoot -17.980206 16.349710 -24.617254
LeftToeBase 8.604308 -0.000000 -0.000000
RightUpLeg 2.487660 -3.894910 -4.250405
RightLeg -3.266586 -0.000000 0.000000
RightFoot -15.409390 -13.832743 9.935071
RightToeBase 5.168281 -0.000000 -0.000000
9
root -1.346567 31.845183 -6.659430 4.415730 6.943789 3.522293
Spine -5.181963 -7.599258 -1.404222
Head 6.155160 7.802403 -0.148765
LeftShoulder -17.957894 14.436993 24.326121
LeftArm 23.368832 -18.083090 -21.940738
LeftForeArm 2.507879 -0.000000 1.055651
LeftHand -12.423872 -0.000000 -10.186453
LeftHandThumb1 -26.253704 0.000000 33.147579
RightShoulder -11.498610 5.378240 -37.864546
RightArm 18.470516 14.349080 34.520105
RightForeArm -23.567163 -0.000000 6.406707
RightHand -15.038821 -0.000000 16.774613
RightHandThumb1 -24.326973 -0.000000 -32.862282
LeftUpLeg -0.357815 -0.753497 -1.464280
LeftLeg 1.348158 -0.000000 -0.000000
LeftFoot -17.986803 16.340583 -24.643008
LeftToeBase 8.597843 -0.000000 -0.000000
RightUpLeg 2.484574 -3.904054 -4.253205
RightLeg -3.254868 -0.000000 0.000000
RightFoot -15.409858 -13.784309 10.053564
RightToeBase 4.987888 -0.000000 -0.000000
10
root -1.346857 31.845198 -6.660341 4.412251 6.939741 3.522951
Spine -5.181985 -7.593675 -1.401261
Head 6.192757 7.783154 -0.154776
LeftShoulder -17.914519 14.360351 24.376953
LeftArm 23.284154 -18.011435 -21.932078
LeftForeArm 2.526217 -0.000000 1.121557
LeftHand -12.507532 -0.000000 -10.137683
LeftHandThumb1 -26.253704 0.000000 33.147579
RightShoulder -11.498119 5.372716 -37.876399
RightArm 18.507629 14.335516 34.517375
RightForeArm -23.591286 0.000000 6.425512
RightHand -15.174279 -0.000000 16.684104
RightHandThumb1 -24.326973 -0.000000 -32.862282
LeftUpLeg -0.353581 -0.758512 -1.463965
LeftLeg 1.341750 -0.000000 -0.000000
LeftFoot -17.993640 16.342044 -24.671075
LeftToeBase 8.628158 -0.000000 -0.000000
RightUpLeg 2.482850 -3.893334 -4.252057
RightLeg -3.249022 -0.000000 0.000000
RightFoot -15.420965 -13.831071 9.966834
RightToeBase 5.136579 -0.000000 -0.000000
11
root -1.347826 31.845299 -6.661909 4.407120 6.940817 3.520609
Spine -5.178967 -7.595673 -1.397377
Head 6.239446 7.781182 -0.154052
LeftShoulder -17.948249 14.426711 24.326304
LeftArm 23.365615 -18.050887 -21.883865
LeftForeArm 2.476510 0.000000 1.094332
LeftHand -12.446239 0.000000 -10.077977
LeftHandThumb1 -26.253704 0.000000 33.147579
RightShoulder -11.496710 5.381914 -37.887197
RightArm 18.542311 14.346664 34.526781
RightForeArm -23.634937 -0.000000 6.437929
RightHand -15.201343 0.000000 16.592154
RightHandThumb1 -24.326973 -0.000000 -32.862282
LeftUpLeg -0.357064 -0.739514 -1.459455
LeftLeg 1.352787 -0.000000 -0.000000
LeftFoot -17.986739 16.314863 -24.666928
LeftToeBase 8.616779 -0.000000 -0.000000
RightUpLeg 2.479989 -3.893990 -4.249220
RightLeg -3.239124 -0.000000 0.000000
RightFoot -15.419734 -13.834449 9.946454
RightToeBase 5.125876 -0.000000 -0.000000
